<?xml version="1.0" encoding="UTF-8"?>
<svg version="1.1" xmlns="http://www.w3.org/2000/svg" width="512" height="512">
<path d="M0 0 C3.5 0.625 3.5 0.625 5.671875 2.45703125 C8.38400309 7.15689425 8.17485193 11.5985714 8.25 16.9375 C8.27964844 17.96423828 8.30929688 18.99097656 8.33984375 20.04882812 C8.41032194 22.57429675 8.4631266 25.09885415 8.5 27.625 C9.22703125 27.04492188 9.9540625 26.46484375 10.703125 25.8671875 C27.86476817 12.53391088 45.40895909 7.44911048 67.0625 7.4375 C68.87137695 7.41913086 68.87137695 7.41913086 70.71679688 7.40039062 C71.88404297 7.39845703 73.05128906 7.39652344 74.25390625 7.39453125 C75.30908447 7.39042236 76.3642627 7.38631348 77.45141602 7.38208008 C81.70338884 7.72088948 85.28790121 8.4255536 88.37109375 11.4765625 C90.5070709 15.54157092 89.50965654 19.28975157 88.5 23.625 C83.30787592 39.44157728 73.09896552 53.3160143 58.5 61.625 C62.48039047 63.15111383 66.44758624 64.63855869 70.515625 65.9140625 C106.48756904 77.20087474 141.33724376 98.26889117 165.5 127.625 C166.25539063 128.49253906 167.01078125 129.36007813 167.7890625 130.25390625 C178.41592041 142.60803983 186.90125703 156.23604666 194.5 170.625 C195.09425781 171.74519531 195.68851562 172.86539063 196.30078125 174.01953125 C205.39144947 192.30535812 211.44854588 212.4618966 214.5 232.625 C214.67136475 233.69427734 214.67136475 233.69427734 214.84619141 234.78515625 C222.97015647 287.06738476 208.76082705 341.84810481 178.07324219 384.61328125 C171.78798231 393.1228272 164.80051715 400.98080658 157.5 408.625 C156.19095703 410.01332031 156.19095703 410.01332031 154.85546875 411.4296875 C147.93753796 418.58057935 140.4874206 424.71502512 132.5 430.625 C131.96117187 431.02460938 131.42234375 431.42421875 130.8671875 431.8359375 C107.90071542 448.69310174 81.87225647 460.00578592 54.1875 466.4375 C53.35387939 466.63239014 52.52025879 466.82728027 51.66137695 467.02807617 C37.7603568 470.07820814 23.99243988 471.00798883 9.8125 470.9375 C9.02597046 470.93534485 8.23944092 470.9331897 7.42907715 470.93096924 C-5.08892782 470.87613522 -17.22862615 470.28532659 -29.5 467.625 C-30.46824707 467.41568848 -31.43649414 467.20637695 -32.43408203 466.99072266 C-58.73911258 461.13825719 -84.46612244 451.43725109 -106.5 435.625 C-107.1398584 435.17012207 -107.7797168 434.71524414 -108.43896484 434.24658203 C-117.7101746 427.60971745 -126.30426489 420.55238908 -134.5 412.625 C-134.9945166 412.15626465 -135.4890332 411.6875293 -135.99853516 411.20458984 C-172.86995481 376.22704728 -195.53342465 325.3686493 -197.62402344 274.61401367 C-199.01311495 219.72346231 -182.12923842 165.7897609 -143.99047852 125.40527344 C-141.44207442 122.73710484 -141.44207442 122.73710484 -139.5 119.625 C-138.84 119.625 -138.18 119.625 -137.5 119.625 C-137.2525 119.04492188 -137.005 118.46484375 -136.75 117.8671875 C-129.00196403 103.96914797 -107.90726994 92.17674238 -94.27832031 84.61767578 C-92.55372617 83.65499047 -90.85058173 82.65418855 -89.1484375 81.65234375 C-77.21814112 74.87927481 -64.34510797 70.35379784 -51.5 65.625 C-52.16314209 65.30684326 -52.82628418 64.98868652 -53.50952148 64.66088867 C-65.10004825 59.00266293 -76.78046823 50.57473602 -82.5 38.625 C-83.16 37.965 -83.82 37.305 -84.5 36.625 C-85.61806336 33.90515157 -86.64654239 31.20667548 -87.625 28.4375 C-87.90214844 27.69435547 -88.17929688 26.95121094 -88.46484375 26.18554688 C-90.11978864 21.53458106 -90.9608033 17.63071253 -90.5 12.625 C-88.60593198 9.95927463 -87.39456586 8.85626397 -84.22216797 8.03613281 C-61.43358083 4.59434082 -37.6358136 8.1749368 -18.1328125 20.5859375 C-14.61632302 23.30939078 -11.58022614 26.42454819 -8.5 29.625 C-8.48598145 28.57372925 -8.48598145 28.57372925 -8.47167969 27.5012207 C-8.41785456 24.31260975 -8.33423064 21.12544667 -8.25 17.9375 C-8.23582031 16.83470703 -8.22164062 15.73191406 -8.20703125 14.59570312 C-7.96060302 6.43892885 -7.96060302 6.43892885 -5.671875 2.39453125 C-3.5 0.625 -3.5 0.625 0 0 Z M163.5 308.625 C164.5 310.625 164.5 310.625 164.5 310.625 Z M162.5 311.625 C163.5 313.625 163.5 313.625 163.5 313.625 Z M163.5 313.625 C164.5 316.625 164.5 316.625 164.5 316.625 Z " fill="#FA9254" transform="translate(246.5,20.375)"/>
<path d="M0 0 C3.5 0.625 3.5 0.625 5.671875 2.45703125 C8.38400309 7.15689425 8.17485193 11.5985714 8.25 16.9375 C8.27964844 17.96423828 8.30929688 18.99097656 8.33984375 20.04882812 C8.41032194 22.57429675 8.4631266 25.09885415 8.5 27.625 C9.22703125 27.04492188 9.9540625 26.46484375 10.703125 25.8671875 C27.86476817 12.53391088 45.40895909 7.44911048 67.0625 7.4375 C68.87137695 7.41913086 68.87137695 7.41913086 70.71679688 7.40039062 C71.88404297 7.39845703 73.05128906 7.39652344 74.25390625 7.39453125 C75.30908447 7.39042236 76.3642627 7.38631348 77.45141602 7.38208008 C81.70338884 7.72088948 85.28790121 8.4255536 88.37109375 11.4765625 C90.5070709 15.54157092 89.50965654 19.28975157 88.5 23.625 C83.30787592 39.44157728 73.09896552 53.3160143 58.5 61.625 C62.48039047 63.15111383 66.44758624 64.63855869 70.515625 65.9140625 C106.48756904 77.20087474 141.33724376 98.26889117 165.5 127.625 C166.25539063 128.49253906 167.01078125 129.36007813 167.7890625 130.25390625 C178.41592041 142.60803983 186.90125703 156.23604666 194.5 170.625 C195.09425781 171.74519531 195.68851562 172.86539063 196.30078125 174.01953125 C205.39144947 192.30535812 211.44854588 212.4618966 214.5 232.625 C214.67136475 233.69427734 214.67136475 233.69427734 214.84619141 234.78515625 C222.97015647 287.06738476 208.76082705 341.84810481 178.07324219 384.61328125 C171.78798231 393.1228272 164.80051715 400.98080658 157.5 408.625 C156.19095703 410.01332031 156.19095703 410.01332031 154.85546875 411.4296875 C147.93753796 418.58057935 140.4874206 424.71502512 132.5 430.625 C131.96117187 431.02460938 131.42234375 431.42421875 130.8671875 431.8359375 C107.90071542 448.69310174 81.87225647 460.00578592 54.1875 466.4375 C53.35387939 466.63239014 52.52025879 466.82728027 51.66137695 467.02807617 C37.7603568 470.07820814 23.99243988 471.00798883 9.8125 470.9375 C9.02597046 470.93534485 8.23944092 470.9331897 7.42907715 470.93096924 C-5.08892782 470.87613522 -17.22862615 470.28532659 -29.5 467.625 C-30.46824707 467.41568848 -31.43649414 467.20637695 -32.43408203 466.99072266 C-58.73911258 461.13825719 -84.46612244 451.43725109 -106.5 435.625 C-107.1398584 435.17012207 -107.7797168 434.71524414 -108.43896484 434.24658203 C-117.7101746 427.60971745 -126.30426489 420.55238908 -134.5 412.625 C-134.9945166 412.15626465 -135.4890332 411.6875293 -135.99853516 411.20458984 C-172.86995481 376.22704728 -195.53342465 325.3686493 -197.62402344 274.61401367 C-199.01311495 219.72346231 -182.12923842 165.7897609 -143.99047852 125.40527344 C-141.44207442 122.73710484 -141.44207442 122.73710484 -139.5 119.625 C-138.84 119.625 -138.18 119.625 -137.5 119.625 C-137.2525 119.04492188 -137.005 118.46484375 -136.75 117.8671875 C-129.00196403 103.96914797 -107.90726994 92.17674238 -94.27832031 84.61767578 C-92.55372617 83.65499047 -90.85058173 82.65418855 -89.1484375 81.65234375 C-77.21814112 74.87927481 -64.34510797 70.35379784 -51.5 65.625 C-52.16314209 65.30684326 -52.82628418 64.98868652 -53.50952148 64.66088867 C-65.10004825 59.00266293 -76.78046823 50.57473602 -82.5 38.625 C-83.16 37.965 -83.82 37.305 -84.5 36.625 C-85.61806336 33.90515157 -86.64654239 31.20667548 -87.625 28.4375 C-87.90214844 27.69435547 -88.17929688 26.95121094 -88.46484375 26.18554688 C-90.11978864 21.53458106 -90.9608033 17.63071253 -90.5 12.625 C-88.60593198 9.95927463 -87.39456586 8.85626397 -84.22216797 8.03613281 C-61.43358083 4.59434082 -37.6358136 8.1749368 -18.1328125 20.5859375 C-14.61632302 23.30939078 -11.58022614 26.42454819 -8.5 29.625 C-8.48598145 28.57372925 -8.48598145 28.57372925 -8.47167969 27.5012207 C-8.41785456 24.31260975 -8.33423064 21.12544667 -8.25 17.9375 C-8.23582031 16.83470703 -8.22164062 15.73191406 -8.20703125 14.59570312 C-7.96060302 6.43892885 -7.96060302 6.43892885 -5.671875 2.39453125 C-3.5 0.625 -3.5 0.625 0 0 Z M6.5 71.625 C6.5 77.565 6.5 83.505 6.5 89.625 C9.61627841 88.37848864 12.47095381 87.19027415 15.42578125 85.6796875 C16.49795898 85.14794922 16.49795898 85.14794922 17.59179688 84.60546875 C19.06603143 83.87159297 20.53490956 83.1268519 21.99804688 82.37109375 C27.09976627 79.87285268 30.81217065 79.04195097 36.5 79.625 C38.5 81.625 38.5 81.625 39.125 84.9375 C38.5 88.625 38.5 88.625 35.37890625 90.9296875 C29.72570728 94.2273869 23.75094581 96.89221835 17.78100586 99.55639648 C15.80126315 100.44252962 13.82939026 101.34476759 11.85742188 102.24804688 C10.58898505 102.81869491 9.32011938 103.38839087 8.05078125 103.95703125 C6.91294189 104.46983643 5.77510254 104.9826416 4.6027832 105.51098633 C1.56361946 106.60215827 -0.32699375 107.2054653 -3.5 106.625 C-6.08731044 104.35023865 -6.47167847 102.83513267 -6.93237305 99.41699219 C-6.95855713 98.18110352 -6.98474121 96.94521484 -7.01171875 95.671875 C-7.02966995 95.01165344 -7.04762115 94.35143188 -7.06611633 93.67120361 C-7.12008809 91.57253311 -7.15407043 89.47408823 -7.1875 87.375 C-7.22068495 85.94788536 -7.25517571 84.52080044 -7.29101562 83.09375 C-7.3758047 79.60438348 -7.44267888 76.11493809 -7.5 72.625 C-17.12000672 73.26748486 -26.09811887 74.48292193 -35.5 76.625 C-36.64726562 76.87894531 -37.79453125 77.13289063 -38.9765625 77.39453125 C-70.67014144 85.08953545 -98.63639307 101.67919251 -122.5 123.625 C-123.0460791 124.12580078 -123.5921582 124.62660156 -124.15478516 125.14257812 C-155.55368144 154.31532899 -172.89011697 193.07026045 -180.5 234.625 C-180.68167725 235.56359863 -180.86335449 236.50219727 -181.05053711 237.46923828 C-182.3898438 244.77356954 -182.84993376 251.82985829 -182.8125 259.25 C-182.80831055 260.41007568 -182.80412109 261.57015137 -182.79980469 262.76538086 C-182.38125212 295.71749028 -175.25390127 326.62278813 -159.5 355.625 C-158.88640625 356.7903125 -158.2728125 357.955625 -157.640625 359.15625 C-150.79899553 371.7086611 -142.18581131 383.07014782 -132.44921875 393.5234375 C-130.70472294 395.40427667 -129.06532432 397.33118031 -127.4375 399.3125 C-124.12856046 403.17591049 -120.41276897 406.38579063 -116.5 409.625 C-115.99355957 410.05441895 -115.48711914 410.48383789 -114.96533203 410.92626953 C-82.45184598 438.43186613 -41.16609834 455.20575349 1.5 456.625 C2.47888184 456.65787109 2.47888184 456.65787109 3.47753906 456.69140625 C57.83113332 458.26005255 106.25755517 436.83103918 145.84765625 400.46875 C151.21675672 395.25976187 155.90529027 389.51869875 160.5 383.625 C160.93747559 383.06393555 161.37495117 382.50287109 161.82568359 381.92480469 C169.0048482 372.64012612 175.12243606 363.05486241 180.5 352.625 C180.88430176 351.88233887 181.26860352 351.13967773 181.66455078 350.37451172 C189.79667438 334.4559553 195.21488598 318.20053046 198.5 300.625 C198.62524551 299.97929047 198.75049103 299.33358093 198.87953186 298.66830444 C201.07461146 287.25375295 202.03275935 276.240974 201.9375 264.625 C201.93445862 263.82917511 201.93141724 263.03335022 201.92828369 262.21340942 C201.64375408 211.46281071 181.9764561 164.86493794 146.5 128.625 C145.38431641 127.43390625 145.38431641 127.43390625 144.24609375 126.21875 C131.71611553 113.11188512 115.67004309 101.76055293 99.5 93.625 C98.38625 93.04492188 97.2725 92.46484375 96.125 91.8671875 C68.41861534 77.85109886 37.55598779 70.35221362 6.5 71.625 Z " fill="#343539" transform="translate(246.5,20.375)"/>
<path d="M0 0 C6.46537916 2.62927327 12.17909299 5.81939145 17.9375 9.75 C19.11916748 10.54942017 19.11916748 10.54942017 20.32470703 11.36499023 C30.66090347 18.42034528 39.90299771 26.43592836 49 35 C49.76054687 35.69480469 50.52109375 36.38960937 51.3046875 37.10546875 C72.83560127 57.49279919 87.38406999 85.33757718 97 113 C97.41121094 114.1653125 97.82242187 115.330625 98.24609375 116.53125 C99.34643046 119.99067436 100.23658661 123.4544055 101 127 C101.27070312 128.25055176 101.27070312 128.25055176 101.546875 129.52636719 C108.74735464 164.51923869 106.75195683 201.27006189 95 235 C94.57203125 236.24136719 94.1440625 237.48273438 93.703125 238.76171875 C87.26062125 255.98594202 78.33993009 272.52514043 67 287 C66.34773437 287.86109375 65.69546875 288.7221875 65.0234375 289.609375 C42.3543254 318.90197252 11.87310784 340.62975715 -23 353 C-24.59714844 353.61294922 -24.59714844 353.61294922 -26.2265625 354.23828125 C-42.5156825 360.1766399 -60.64932289 363.70769016 -78 364 C-79.26714844 364.03867187 -80.53429687 364.07734375 -81.83984375 364.1171875 C-112.90125445 364.79412428 -142.92876018 358.33383891 -171 345 C-171 344.67 -171 344.34 -171 344 C-170.03638298 344.00999275 -170.03638298 344.00999275 -169.05329895 344.02018738 C-162.25392765 344.08752124 -155.45465374 344.13219845 -148.6550293 344.16479492 C-146.13090151 344.17970971 -143.60679882 344.2000487 -141.08276367 344.22631836 C-90.75066731 344.7363396 -40.0940825 331.27112728 -2.8125 295.8125 C25.48506889 267.51493111 40.42029833 227.91722006 46 189 C46.17732666 187.87311768 46.35465332 186.74623535 46.53735352 185.58520508 C47.98395991 175.8632633 48.357868 166.37610893 48.3125 156.5625 C48.31134186 155.78096558 48.31018372 154.99943115 48.30899048 154.19421387 C48.26943181 140.61850877 47.27553433 127.39858202 45 114 C44.88253418 113.27055176 44.76506836 112.54110352 44.64404297 111.78955078 C43.89327803 107.16365851 42.98265072 102.58096684 42 98 C41.77304443 96.89615967 41.77304443 96.89615967 41.54150391 95.77001953 C37.03540756 74.10040395 30.40760558 51.60741495 20 32 C19.48824219 31.00613281 18.97648438 30.01226562 18.44921875 28.98828125 C13.88920444 20.35135493 8.56947043 12.52265894 2.41796875 4.9453125 C1 3 1 3 0 0 Z M67 216 C68 218 68 218 68 218 Z M66 219 C67 221 67 221 67 221 Z M67 221 C68 224 68 224 68 224 Z " fill="#E95B41" transform="translate(343,113)"/>
<path d="M0 0 C1.06734375 0.54333984 1.06734375 0.54333984 2.15625 1.09765625 C12.67399583 7.06445436 19.75109294 16.4150814 23 28 C24.208329 40.51885044 21.99801728 50.74510733 14.69140625 61 C8.75450219 68.02008055 0.0507352 72.5953471 -9 74 C-22.88443608 74.9987625 -34.46686756 72.91077347 -45.625 64.13671875 C-53.19703077 57.32438186 -58.49424101 47.9728411 -59.23828125 37.71484375 C-59.47238901 25.79999111 -57.4478548 15.88059569 -49 7 C-35.72232349 -5.43667205 -16.42534984 -8.57830771 0 0 Z " fill="#FEFEFD" transform="translate(187,141)"/>
<path d="M0 0 C5.78459398 2.47575929 9.58802455 7.44457297 12.25 13 C13.5578836 19.97537922 13.1952572 24.7010728 9.8125 31 C6.57762265 35.67260061 3.44043158 38.80319908 -2.1875 40 C-8.06800914 40.59465823 -13.26093246 40.89447779 -18.6875 38.375 C-23.22045221 34.0686954 -27.7310396 29.71537534 -28.5234375 23.265625 C-28.60847932 16.70039625 -28.42933551 11.26128217 -24.1875 6 C-16.79797423 -0.67393928 -9.83377545 -3.00209192 0 0 Z " fill="#FEFDFD" transform="translate(125.1875,216)"/>
<path d="M0 0 C17.49949888 0.19125135 34.38116075 4.15309115 47.59765625 16.28515625 C52.59725935 21.58380104 58.3125 28.60229098 58.3125 36.1875 C38.4847821 37.02398185 19.40211451 33.2101678 4.34765625 19.3828125 C-0.69383361 14.06552998 -3.67451796 7.80943856 -6.6875 1.1875 C-4.9130184 -0.5869816 -2.40286868 0.01449257 0 0 Z " fill="#3C7953" transform="translate(178.6875,41.8125)"/>
<path d="M0 0 C0.69738281 0.00451172 1.39476562 0.00902344 2.11328125 0.01367188 C3.82555803 0.0253998 5.53779033 0.04333347 7.25 0.0625 C6.48670815 6.38691817 3.95251068 10.03507128 0.25 15.0625 C-0.4925 16.09375 -1.235 17.125 -2 18.1875 C-12.87900877 29.56100917 -29.68771041 35.78137647 -45.3359375 36.3125 C-49.1474048 36.35072269 -52.94310134 36.24474515 -56.75 36.0625 C-53.609016 24.4077962 -47.4151158 15.82173608 -37.1328125 9.4375 C-29.02989133 5.04567281 -20.67141032 3.02159348 -11.75 1.0625 C-11.09515625 0.86398438 -10.4403125 0.66546875 -9.765625 0.4609375 C-6.53235905 -0.17819647 -3.28115343 -0.04031663 0 0 Z " fill="#639E6A" transform="translate(311.75,41.9375)"/>
<path d="M0 0 C7.97002725 -0.61307902 7.97002725 -0.61307902 11.625 1.5625 C13 4 13 4 13 7.5625 C12 11 12 11 10.4375 13 C6.72435451 14.52334174 3.91787058 13.71827627 0 13 C-0.99 10.03 -1.98 7.06 -3 4 C-2.34 3.34 -1.68 2.68 -1 2 C-0.67 1.34 -0.34 0.68 0 0 Z " fill="#383639" transform="translate(412,326)"/>
<path d="M0 0 C2.375 1.5 2.375 1.5 4 4 C4.23651403 6.84943094 3.91621647 9.29299679 3 12 C1.375 13.5625 1.375 13.5625 -1 14 C-4.74129486 13.8687265 -7.09769306 13.76132148 -10 11.3125 C-11.40208688 8.0701741 -11.13144192 6.32361065 -10 3 C-6.80173449 0.33477874 -4.13698918 -0.74253652 0 0 Z " fill="#353539" transform="translate(407,355)"/>
<path d="M0 0 C3 0.5625 3 0.5625 5.4375 2.6875 C7 5.5625 7 5.5625 7 8.6875 C5.84834332 11.99851296 5.1151646 13.0049177 2 14.5625 C-0.5 15 -0.5 15 -3 14.5625 C-5.3125 12.9375 -5.3125 12.9375 -7 10.5625 C-7.61195145 6.8907913 -7.48706506 5.27436432 -5.375 2.1875 C-3 0.5625 -3 0.5625 0 0 Z " fill="#373539" transform="translate(386,381.4375)"/>
<path d="M0 0 C1.9375 1.0625 1.9375 1.0625 3 3 C3.5 6.4375 3.5 6.4375 3 10 C0.875 12.5 0.875 12.5 -2 14 C-5.54334961 14 -7.25666783 13.64741834 -9.9375 11.3125 C-11.40109489 8.12702876 -10.98928968 6.32118677 -10 3 C-7.61338866 -0.97768557 -4.27600952 -0.45814388 0 0 Z " fill="#3A3739" transform="translate(200,125)"/>
<path d="M0 0 C2 2 2 2 2.4375 5.375 C2 9 2 9 -0.1875 11.4375 C-3.20970247 13.11650137 -4.61783537 13.62303033 -8 13 C-10.30073694 11.43878564 -10.91384861 10.2338395 -11.875 7.625 C-12.0376843 4.20862965 -11.02489572 2.69986096 -9 0 C-5.88135455 -1.55932272 -3.33704665 -0.65549131 0 0 Z " fill="#373C3D" transform="translate(165,142)"/>
<path d="M0 0 C2.5 1.625 2.5 1.625 4 4 C3.93558662 7.15625563 3.49895728 9.16840453 1.875 11.875 C-1.12446786 13.67468071 -3.59386668 13.36494286 -7 13 C-8.9375 11.9375 -8.9375 11.9375 -10 10 C-10.36528977 6.5906288 -10.6140629 4.11976176 -8.9375 1.0625 C-5.8347167 -0.63902633 -3.46230815 -0.42519574 0 0 Z " fill="#373639" transform="translate(223,146)"/>
<path d="" fill="#3B3B3B" transform="translate(0,0)"/>
<path d="" fill="#3B3B3B" transform="translate(0,0)"/>
<path d="" fill="#3B3B3B" transform="translate(0,0)"/>
<path d="" fill="#3B3B3B" transform="translate(0,0)"/>
<path d="" fill="#3B3B3B" transform="translate(0,0)"/>
<path d="" fill="#3B3B3B" transform="translate(0,0)"/>
<path d="" fill="#3B3B3B" transform="translate(0,0)"/>
<path d="" fill="#3B3B3B" transform="translate(0,0)"/>
<path d="" fill="#3B3B3B" transform="translate(0,0)"/>
<path d="" fill="#3B3B3B" transform="translate(0,0)"/>
<path d="" fill="#3B3B3B" transform="translate(0,0)"/>
<path d="" fill="#3B3B3B" transform="translate(0,0)"/>
<path d="" fill="#3B3B3B" transform="translate(0,0)"/>
<path d="" fill="#3B3B3B" transform="translate(0,0)"/>
<path d="" fill="#3B3B3B" transform="translate(0,0)"/>
<path d="" fill="#3B3B3B" transform="translate(0,0)"/>
<path d="" fill="#3B3B3B" transform="translate(0,0)"/>
<path d="" fill="#3B3B3B" transform="translate(0,0)"/>
<path d="" fill="#3B3B3B" transform="translate(0,0)"/>
<path d="" fill="#3B3B3B" transform="translate(0,0)"/>
<path d="" fill="#3B3B3B" transform="translate(0,0)"/>
<path d="" fill="#3B3B3B" transform="translate(0,0)"/>
<path d="" fill="#3B3B3B" transform="translate(0,0)"/>
</svg>
